<?xml version='1.0' encoding='UTF-8'?>
<!DOCTYPE svg PUBLIC "-//W3C//DTD SVG 1.0//EN" "http://www.w3.org/TR/2001/REC-SVG-20010904/DTD/svg10.dtd">
<svg viewBox="0 0 760 588" xmlns="http://www.w3.org/2000/svg" xmlns:inkspace="http://www.inkscape.org/namespaces/inkscape" xmlns:xlink="http://www.w3.org/1999/xlink">
  <defs id="defs_block">
    <filter height="1.504" id="filter_blur" inkspace:collect="always" width="1.1575" x="-0.07875" y="-0.252">
      <feGaussianBlur id="feGaussianBlur3780" inkspace:collect="always" stdDeviation="4.2" />
    </filter>
  </defs>
  <title>blockdiag</title>
  <desc>nwdiag {
  inet [shape = cloud];
  inet -- router;

  network cluster {
    router;

    address = "210.x.x.x/24"

    node-01 [address = "210.x.x.1"];
    node-02 [address = "210.x.x.2"];
    node-03 [address = "210.x.x.2"];
  }
}
</desc>
  <path d="M 171 178 A16,8 0 0 1 187 170 A16,6 0 0 1 227 170 A16,8 0 0 1 243 178 A16,8 0 0 1 243 194 A16,20 0 0 1 219 194 A16,20 0 0 1 195 194 A16,20 0 0 1 171 194 A16,8 0 0 1 171 178" fill="rgb(0,0,0)" stroke="rgb(0,0,0)" style="filter:url(#filter_blur);opacity:0.7;fill-opacity:1" />
  <rect fill="rgb(0,0,0)" height="40" stroke="rgb(0,0,0)" style="filter:url(#filter_blur);opacity:0.7;fill-opacity:1" width="104" x="155" y="306" />
  <rect fill="rgb(0,0,0)" height="40" stroke="rgb(0,0,0)" style="filter:url(#filter_blur);opacity:0.7;fill-opacity:1" width="104" x="307" y="450" />
  <rect fill="rgb(0,0,0)" height="40" stroke="rgb(0,0,0)" style="filter:url(#filter_blur);opacity:0.7;fill-opacity:1" width="104" x="459" y="450" />
  <rect fill="rgb(0,0,0)" height="40" stroke="rgb(0,0,0)" style="filter:url(#filter_blur);opacity:0.7;fill-opacity:1" width="104" x="611" y="450" />
  <path d="M 131 391 L 739 391 A2,4 0 0 1 739 399 L 131 399 A2,4 0 0 1 131 391" fill="rgb(0,0,0)" style="filter:url(#filter_blur)" />
  <path d="M 128 388 L 736 388 A2,4 0 0 1 736 396 L 128 396 A2,4 0 0 1 128 388" fill="rgb(185,203,228)" stroke="rgb(0,0,0)" />
  <path d="M 736 396 A2,4 0 0 1 736 388" fill="none" stroke="rgb(0,0,0)" />
  <path d="M 128 388 L 736 388" fill="none" stroke="none" />
  <text fill="rgb(0,0,0)" font-family="sansserif" font-size="11" font-style="normal" font-weight="normal" text-anchor="middle" textLength="42" x="99" y="391">cluster</text>
  <text fill="rgb(0,0,0)" font-family="sansserif" font-size="11" font-style="normal" font-weight="normal" text-anchor="middle" textLength="72" x="84" y="404">210.x.x.x/24</text>
  <path d="M 204 104 L 204 156" fill="none" stroke="rgb(0,0,0)" />
  <path d="M 204 196 L 204 248" fill="none" stroke="rgb(0,0,0)" />
  <path d="M 168 172 A16,8 0 0 1 184 164 A16,6 0 0 1 224 164 A16,8 0 0 1 240 172 A16,8 0 0 1 240 188 A16,20 0 0 1 216 188 A16,20 0 0 1 192 188 A16,20 0 0 1 168 188 A16,8 0 0 1 168 172" fill="rgb(255,255,255)" stroke="rgb(0,0,0)" />
  <text fill="rgb(0,0,0)" font-family="sansserif" font-size="11" font-style="normal" font-weight="normal" text-anchor="middle" textLength="24" x="204" y="182">inet</text>
  <path d="M 204 248 L 204 300" fill="none" stroke="rgb(0,0,0)" />
  <path d="M 204 340 L 204 388" fill="none" stroke="rgb(0,0,0)" />
  <rect fill="rgb(255,255,255)" height="40" stroke="rgb(0,0,0)" width="104" x="152" y="300" />
  <text fill="rgb(0,0,0)" font-family="sansserif" font-size="11" font-style="normal" font-weight="normal" text-anchor="middle" textLength="36" x="204" y="326">router</text>
  <path d="M 356 396 L 356 444" fill="none" stroke="rgb(0,0,0)" />
  <text fill="rgb(0,0,0)" font-family="sansserif" font-size="11" font-style="normal" font-weight="normal" text-anchor="middle" textLength="54" x="395" y="424">210.x.x.1</text>
  <rect fill="rgb(255,255,255)" height="40" stroke="rgb(0,0,0)" width="104" x="304" y="444" />
  <text fill="rgb(0,0,0)" font-family="sansserif" font-size="11" font-style="normal" font-weight="normal" text-anchor="middle" textLength="42" x="356" y="470">node-01</text>
  <path d="M 508 396 L 508 444" fill="none" stroke="rgb(0,0,0)" />
  <text fill="rgb(0,0,0)" font-family="sansserif" font-size="11" font-style="normal" font-weight="normal" text-anchor="middle" textLength="54" x="547" y="424">210.x.x.2</text>
  <rect fill="rgb(255,255,255)" height="40" stroke="rgb(0,0,0)" width="104" x="456" y="444" />
  <text fill="rgb(0,0,0)" font-family="sansserif" font-size="11" font-style="normal" font-weight="normal" text-anchor="middle" textLength="42" x="508" y="470">node-02</text>
  <path d="M 660 396 L 660 444" fill="none" stroke="rgb(0,0,0)" />
  <text fill="rgb(0,0,0)" font-family="sansserif" font-size="11" font-style="normal" font-weight="normal" text-anchor="middle" textLength="54" x="699" y="424">210.x.x.2</text>
  <rect fill="rgb(255,255,255)" height="40" stroke="rgb(0,0,0)" width="104" x="608" y="444" />
  <text fill="rgb(0,0,0)" font-family="sansserif" font-size="11" font-style="normal" font-weight="normal" text-anchor="middle" textLength="42" x="660" y="470">node-03</text>
</svg>
