<?xml version="1.0" encoding="UTF-8" standalone="no"?>
<!DOCTYPE svg PUBLIC "-//W3C//DTD SVG 1.1//EN"
 "http://www.w3.org/Graphics/SVG/1.1/DTD/svg11.dtd">
<!-- Generated by graphviz version 2.43.0 (0)
 -->
<!-- Title: default_network_setup_routed Pages: 1 -->
<svg width="571pt" height="360pt"
 viewBox="0.00 0.00 571.30 360.00" xmlns="http://www.w3.org/2000/svg" xmlns:xlink="http://www.w3.org/1999/xlink">
<g id="graph0" class="graph" transform="scale(1.02 1.02) rotate(0) translate(4 364)">
<title>default_network_setup_routed</title>
<polygon fill="white" stroke="transparent" points="-4,4 -4,-364 580,-364 580,4 -4,4"/>
<g id="clust1" class="cluster">
<title>cluster_node1</title>
<path fill="#00617f" stroke="#00617f" d="M21.42,-10.63C21.42,-10.63 554.58,-10.63 554.58,-10.63 560.58,-10.63 566.58,-16.63 566.58,-22.63 566.58,-22.63 566.58,-248.37 566.58,-248.37 566.58,-254.37 560.58,-260.37 554.58,-260.37 554.58,-260.37 21.42,-260.37 21.42,-260.37 15.42,-260.37 9.42,-254.37 9.42,-248.37 9.42,-248.37 9.42,-22.63 9.42,-22.63 9.42,-16.63 15.42,-10.63 21.42,-10.63"/>
<text text-anchor="middle" x="288" y="-18.43" font-family="Helvetica,sans-Serif" font-size="14.00" fill="white">Node: proxmox</text>
</g>
<!-- gateway -->
<g id="node1" class="node">
<title>gateway</title>
<polygon fill="#ff9100" stroke="transparent" points="376.61,-310.63 376.61,-348.63 520.61,-348.63 520.61,-310.63 376.61,-310.63"/>
<text text-anchor="start" x="387.61" y="-333.43" font-family="Helvetica,sans-Serif" font-size="14.00" fill="white">Provider Gateway</text>
<text text-anchor="start" x="403.11" y="-318.03" font-family="Courier,monospace" font-size="12.00" fill="white">198.51.100.1</text>
<polygon fill="none" stroke="#666666" stroke-width="2" points="377.61,-311.63 377.61,-347.63 519.61,-347.63 519.61,-311.63 377.61,-311.63"/>
</g>
<!-- node1_eno0 -->
<g id="node2" class="node">
<title>node1_eno0</title>
<polygon fill="#666666" stroke="transparent" points="438.61,-217.63 438.61,-227.63 463.61,-227.63 463.61,-217.63 438.61,-217.63"/>
<text text-anchor="start" x="441.61" y="-220.73" font-family="Courier,monospace" font-size="8.00" fill="white">eno0</text>
<path fill="lightgreen" stroke="transparent" d="M396.94,-197.63C396.94,-197.63 527.27,-197.63 527.27,-197.63 530.44,-197.63 533.61,-200.79 533.61,-203.96 533.61,-203.96 533.61,-210.29 533.61,-210.29 533.61,-213.46 530.44,-216.63 527.27,-216.63 527.27,-216.63 396.94,-216.63 396.94,-216.63 393.77,-216.63 390.61,-213.46 390.61,-210.29 390.61,-210.29 390.61,-203.96 390.61,-203.96 390.61,-200.79 393.77,-197.63 396.94,-197.63"/>
<text text-anchor="start" x="405.61" y="-204.03" font-family="Courier,monospace" font-size="12.00">198.51.100.5/29</text>
<path fill="none" stroke="green" stroke-width="2" d="M396.94,-197.63C396.94,-197.63 527.27,-197.63 527.27,-197.63 530.44,-197.63 533.61,-200.79 533.61,-203.96 533.61,-203.96 533.61,-210.29 533.61,-210.29 533.61,-213.46 530.44,-216.63 527.27,-216.63 527.27,-216.63 396.94,-216.63 396.94,-216.63 393.77,-216.63 390.61,-213.46 390.61,-210.29 390.61,-210.29 390.61,-203.96 390.61,-203.96 390.61,-200.79 393.77,-197.63 396.94,-197.63"/>
</g>
<!-- gateway&#45;&#45;node1_eno0 -->
<g id="edge4" class="edge">
<title>gateway&#45;&#45;node1_eno0:eno0</title>
<path fill="none" stroke="#ff9100" d="M449.05,-306.43C449.64,-276.97 450.61,-228.63 450.61,-228.63"/>
</g>
<!-- node1_vmbr0 -->
<g id="node3" class="node">
<title>node1_vmbr0</title>
<path fill="#abbaba" stroke="transparent" d="M55.61,-199.63C55.61,-199.63 174.61,-199.63 174.61,-199.63 180.61,-199.63 186.61,-205.63 186.61,-211.63 186.61,-211.63 186.61,-223.63 186.61,-223.63 186.61,-229.63 180.61,-235.63 174.61,-235.63 174.61,-235.63 55.61,-235.63 55.61,-235.63 49.61,-235.63 43.61,-229.63 43.61,-223.63 43.61,-223.63 43.61,-211.63 43.61,-211.63 43.61,-205.63 49.61,-199.63 55.61,-199.63"/>
<text text-anchor="start" x="92.11" y="-221.43" font-family="Helvetica,sans-Serif" font-size="14.00" fill="white">vmbr0</text>
<text text-anchor="start" x="58.61" y="-206.03" font-family="Courier,monospace" font-size="12.00" fill="white">203.0.113.17/28</text>
<path fill="none" stroke="#666666" stroke-width="2" d="M55.61,-199.63C55.61,-199.63 174.61,-199.63 174.61,-199.63 180.61,-199.63 186.61,-205.63 186.61,-211.63 186.61,-211.63 186.61,-223.63 186.61,-223.63 186.61,-229.63 180.61,-235.63 174.61,-235.63 174.61,-235.63 55.61,-235.63 55.61,-235.63 49.61,-235.63 43.61,-229.63 43.61,-223.63 43.61,-223.63 43.61,-211.63 43.61,-211.63 43.61,-205.63 49.61,-199.63 55.61,-199.63"/>
<polygon fill="#666666" stroke="transparent" stroke-width="2" points="84.11,-188.63 84.11,-198.63 129.11,-198.63 129.11,-188.63 84.11,-188.63"/>
<text text-anchor="start" x="88.11" y="-191.73" font-family="Courier,monospace" font-size="8.00" fill="white">tap100i0</text>
</g>
<!-- node1_vmbr0&#45;&#45;node1_eno0 -->
<g id="edge5" class="edge">
<title>node1_vmbr0&#45;&#45;node1_eno0</title>
<path fill="none" stroke="red" d="M195.53,-212.63C251.3,-212.63 325.12,-212.63 380.86,-212.63"/>
<text text-anchor="end" x="346.11" y="-234.43" font-family="Courier,monospace" font-size="14.00" fill="white">ip_forward = 1</text>
<text text-anchor="end" x="346.11" y="-219.43" font-family="Courier,monospace" font-size="14.00" fill="white">proxy_arp = 1</text>
</g>
<!-- vm100 -->
<g id="node4" class="node">
<title>vm100</title>
<polygon fill="#666666" stroke="transparent" points="74.11,-102.63 74.11,-112.63 104.11,-112.63 104.11,-102.63 74.11,-102.63"/>
<text text-anchor="start" x="77.61" y="-105.73" font-family="Courier,monospace" font-size="8.00" fill="white">ens18</text>
<polygon fill="#ff9100" stroke="transparent" points="39.61,-64.63 39.61,-102.63 152.61,-102.63 152.61,-64.63 39.61,-64.63"/>
<text text-anchor="start" x="69.11" y="-87.43" font-family="Helvetica,sans-Serif" font-size="14.00" fill="white">VM 100</text>
<text text-anchor="start" x="50.61" y="-72.03" font-family="Courier,monospace" font-size="12.00" fill="white">203.0.113.18</text>
<polygon fill="none" stroke="#666666" stroke-width="2" points="40.61,-65.63 40.61,-101.63 151.61,-101.63 151.61,-65.63 40.61,-65.63"/>
</g>
<!-- node1_vmbr0&#45;&#45;vm100 -->
<g id="edge1" class="edge">
<title>node1_vmbr0:tap100i0&#45;&#45;vm100:ens18</title>
<path fill="none" stroke="white" d="M106.61,-187.63C106.61,-187.63 88.61,-113.63 88.61,-113.63"/>
</g>
<!-- vm101 -->
<g id="node5" class="node">
<title>vm101</title>
<polygon fill="#666666" stroke="transparent" points="247.11,-102.63 247.11,-112.63 277.11,-112.63 277.11,-102.63 247.11,-102.63"/>
<text text-anchor="start" x="250.61" y="-105.73" font-family="Courier,monospace" font-size="8.00" fill="white">ens18</text>
<polygon fill="#ff9100" stroke="transparent" points="212.61,-64.63 212.61,-102.63 325.61,-102.63 325.61,-64.63 212.61,-64.63"/>
<text text-anchor="start" x="242.11" y="-87.43" font-family="Helvetica,sans-Serif" font-size="14.00" fill="white">VM 101</text>
<text text-anchor="start" x="223.61" y="-72.03" font-family="Courier,monospace" font-size="12.00" fill="white">203.0.113.19</text>
<polygon fill="none" stroke="#666666" stroke-width="2" points="213.61,-65.63 213.61,-101.63 324.61,-101.63 324.61,-65.63 213.61,-65.63"/>
</g>
<!-- node1_vmbr0&#45;&#45;vm101 -->
<g id="edge2" class="edge">
<title>node1_vmbr0:tap100i0&#45;&#45;vm101:ens18</title>
<path fill="none" stroke="white" d="M106.61,-187.63C106.61,-187.63 261.61,-113.63 261.61,-113.63"/>
</g>
<!-- vm102 -->
<g id="node6" class="node">
<title>vm102</title>
<polygon fill="#666666" stroke="transparent" points="420.11,-102.63 420.11,-112.63 450.11,-112.63 450.11,-102.63 420.11,-102.63"/>
<text text-anchor="start" x="423.61" y="-105.73" font-family="Courier,monospace" font-size="8.00" fill="white">ens18</text>
<polygon fill="#ff9100" stroke="transparent" points="385.61,-64.63 385.61,-102.63 498.61,-102.63 498.61,-64.63 385.61,-64.63"/>
<text text-anchor="start" x="415.11" y="-87.43" font-family="Helvetica,sans-Serif" font-size="14.00" fill="white">VM 102</text>
<text text-anchor="start" x="396.61" y="-72.03" font-family="Courier,monospace" font-size="12.00" fill="white">203.0.113.20</text>
<polygon fill="none" stroke="#666666" stroke-width="2" points="386.61,-65.63 386.61,-101.63 497.61,-101.63 497.61,-65.63 386.61,-65.63"/>
</g>
<!-- node1_vmbr0&#45;&#45;vm102 -->
<g id="edge3" class="edge">
<title>node1_vmbr0:tap100i0&#45;&#45;vm102:ens18</title>
<path fill="none" stroke="white" d="M106.61,-187.63C106.61,-187.63 434.61,-113.63 434.61,-113.63"/>
</g>
</g>
</svg>
