<?xml version="1.0" encoding="UTF-8" standalone="no"?>
<!DOCTYPE svg PUBLIC "-//W3C//DTD SVG 1.1//EN"
 "http://www.w3.org/Graphics/SVG/1.1/DTD/svg11.dtd">
<!-- Generated by graphviz version 2.38.0 (20140413.2041)
 -->
<!-- Title: default_network_setup_bridge Pages: 1 -->
<svg width="572pt" height="360pt"
 viewBox="0.00 0.00 571.59 360.00" xmlns="http://www.w3.org/2000/svg" xmlns:xlink="http://www.w3.org/1999/xlink">
<g id="graph0" class="graph" transform="scale(0.918953 0.918953) rotate(0) translate(4 387.75)">
<title>default_network_setup_bridge</title>
<polygon fill="white" stroke="none" points="-4,4 -4,-387.75 618,-387.75 618,4 -4,4"/>
<g id="clust1" class="cluster"><title>cluster_node1</title>
<polygon fill="none" stroke="black" points="126,-11.2044 126,-287.112 304,-287.112 304,-11.2044 126,-11.2044"/>
<text text-anchor="middle" x="181" y="-19.0044" font-family="Times,serif" font-size="14.00">Node: proxmox1</text>
</g>
<g id="clust2" class="cluster"><title>cluster_node2</title>
<polygon fill="none" stroke="black" points="312,-11.2044 312,-287.112 606,-287.112 606,-11.2044 312,-11.2044"/>
<text text-anchor="middle" x="367" y="-19.0044" font-family="Times,serif" font-size="14.00">Node: proxmox2</text>
</g>
<!-- gateway -->
<g id="node1" class="node"><title>gateway</title>
<polygon fill="#666666" stroke="none" points="39.5,-243.204 39.5,-253.204 64.5,-253.204 64.5,-243.204 39.5,-243.204"/>
<text text-anchor="start" x="41" y="-246.304" font-family="monospace" font-size="8.00" fill="white">eno1</text>
<polygon fill="#888888" stroke="none" points="8,-205.204 8,-243.204 108,-243.204 108,-205.204 8,-205.204"/>
<text text-anchor="start" x="12" y="-228.004" font-family="Times,serif" font-size="14.00" fill="white">Gateway, DHCP</text>
<text text-anchor="start" x="12.5" y="-212.604" font-family="monospace" font-size="12.00" fill="white">192.168.10.1</text>
<polygon fill="none" stroke="#666666" stroke-width="2" points="9,-206.204 9,-242.204 107,-242.204 107,-206.204 9,-206.204"/>
</g>
<!-- tor01 -->
<g id="node2" class="node"><title>tor01</title>
<path fill="lightgreen" stroke="none" d="M146,-349.204C146,-349.204 272,-349.204 272,-349.204 275.5,-349.204 279,-352.704 279,-356.204 279,-356.204 279,-363.204 279,-363.204 279,-366.704 275.5,-370.204 272,-370.204 272,-370.204 146,-370.204 146,-370.204 142.5,-370.204 139,-366.704 139,-363.204 139,-363.204 139,-356.204 139,-356.204 139,-352.704 142.5,-349.204 146,-349.204"/>
<text text-anchor="start" x="154" y="-356.004" font-family="Times,serif" font-size="14.00">Top of Rack Switch</text>
<path fill="none" stroke="green" stroke-width="2" d="M146,-349.204C146,-349.204 272,-349.204 272,-349.204 275.5,-349.204 279,-352.704 279,-356.204 279,-356.204 279,-363.204 279,-363.204 279,-366.704 275.5,-370.204 272,-370.204 272,-370.204 146,-370.204 146,-370.204 142.5,-370.204 139,-366.704 139,-363.204 139,-363.204 139,-356.204 139,-356.204 139,-352.704 142.5,-349.204 146,-349.204"/>
<polygon fill="#666666" stroke="none" stroke-width="2" points="168,-338.204 168,-348.204 178,-348.204 178,-338.204 168,-338.204"/>
<text text-anchor="start" x="170" y="-341.304" font-family="monospace" font-size="8.00" fill="white">1</text>
<polygon fill="#666666" stroke="none" stroke-width="2" points="199,-338.204 199,-348.204 209,-348.204 209,-338.204 199,-338.204"/>
<text text-anchor="start" x="201" y="-341.304" font-family="monospace" font-size="8.00" fill="white">2</text>
<polygon fill="#666666" stroke="none" stroke-width="2" points="230,-338.204 230,-348.204 240,-348.204 240,-338.204 230,-338.204"/>
<text text-anchor="start" x="232" y="-341.304" font-family="monospace" font-size="8.00" fill="white">3</text>
</g>
<!-- tor01&#45;&#45;gateway -->
<g id="edge1" class="edge"><title>tor01:1&#45;&#45;gateway:eno1</title>
<path fill="none" stroke="black" d="M173,-337.204C173,-337.204 52,-254.204 52,-254.204"/>
</g>
<!-- node1_vmbr0 -->
<g id="node3" class="node"><title>node1_vmbr0</title>
<polygon fill="#666666" stroke="none" points="192,-248.204 192,-258.204 217,-258.204 217,-248.204 192,-248.204"/>
<text text-anchor="start" x="193.5" y="-251.304" font-family="monospace" font-size="8.00" fill="white">eno1</text>
<path fill="lightgreen" stroke="none" d="M156,-211.204C156,-211.204 275,-211.204 275,-211.204 281,-211.204 287,-217.204 287,-223.204 287,-223.204 287,-235.204 287,-235.204 287,-241.204 281,-247.204 275,-247.204 275,-247.204 156,-247.204 156,-247.204 150,-247.204 144,-241.204 144,-235.204 144,-235.204 144,-223.204 144,-223.204 144,-217.204 150,-211.204 156,-211.204"/>
<text text-anchor="start" x="197" y="-233.004" font-family="Times,serif" font-size="14.00">vmbr0</text>
<text text-anchor="start" x="159" y="-217.604" font-family="monospace" font-size="12.00">192.168.10.2/24</text>
<path fill="none" stroke="green" stroke-width="2" d="M156,-211.204C156,-211.204 275,-211.204 275,-211.204 281,-211.204 287,-217.204 287,-223.204 287,-223.204 287,-235.204 287,-235.204 287,-241.204 281,-247.204 275,-247.204 275,-247.204 156,-247.204 156,-247.204 150,-247.204 144,-241.204 144,-235.204 144,-235.204 144,-223.204 144,-223.204 144,-217.204 150,-211.204 156,-211.204"/>
<polygon fill="#666666" stroke="none" stroke-width="2" points="184.5,-200.204 184.5,-210.204 229.5,-210.204 229.5,-200.204 184.5,-200.204"/>
<text text-anchor="start" x="185.5" y="-203.304" font-family="monospace" font-size="8.00" fill="white">tap100i0</text>
</g>
<!-- tor01&#45;&#45;node1_vmbr0 -->
<g id="edge2" class="edge"><title>tor01:2&#45;&#45;node1_vmbr0:eno1</title>
<path fill="none" stroke="black" d="M204,-337.204C204,-337.204 204,-259.204 204,-259.204"/>
</g>
<!-- node2_vmbr0 -->
<g id="node4" class="node"><title>node2_vmbr0</title>
<polygon fill="#666666" stroke="none" points="384,-248.204 384,-258.204 409,-258.204 409,-248.204 384,-248.204"/>
<text text-anchor="start" x="385.5" y="-251.304" font-family="monospace" font-size="8.00" fill="white">eno1</text>
<path fill="lightgreen" stroke="none" d="M348,-211.204C348,-211.204 467,-211.204 467,-211.204 473,-211.204 479,-217.204 479,-223.204 479,-223.204 479,-235.204 479,-235.204 479,-241.204 473,-247.204 467,-247.204 467,-247.204 348,-247.204 348,-247.204 342,-247.204 336,-241.204 336,-235.204 336,-235.204 336,-223.204 336,-223.204 336,-217.204 342,-211.204 348,-211.204"/>
<text text-anchor="start" x="389" y="-233.004" font-family="Times,serif" font-size="14.00">vmbr0</text>
<text text-anchor="start" x="351" y="-217.604" font-family="monospace" font-size="12.00">192.168.10.3/24</text>
<path fill="none" stroke="green" stroke-width="2" d="M348,-211.204C348,-211.204 467,-211.204 467,-211.204 473,-211.204 479,-217.204 479,-223.204 479,-223.204 479,-235.204 479,-235.204 479,-241.204 473,-247.204 467,-247.204 467,-247.204 348,-247.204 348,-247.204 342,-247.204 336,-241.204 336,-235.204 336,-235.204 336,-223.204 336,-223.204 336,-217.204 342,-211.204 348,-211.204"/>
<polygon fill="#666666" stroke="none" stroke-width="2" points="356,-200.204 356,-210.204 401,-210.204 401,-200.204 356,-200.204"/>
<text text-anchor="start" x="357" y="-203.304" font-family="monospace" font-size="8.00" fill="white">tap200i0</text>
<polygon fill="#666666" stroke="none" stroke-width="2" points="410,-200.204 410,-210.204 455,-210.204 455,-200.204 410,-200.204"/>
<text text-anchor="start" x="411" y="-203.304" font-family="monospace" font-size="8.00" fill="white">tap201i0</text>
</g>
<!-- tor01&#45;&#45;node2_vmbr0 -->
<g id="edge3" class="edge"><title>tor01:3&#45;&#45;node2_vmbr0:eno1</title>
<path fill="none" stroke="black" d="M235,-337.204C235,-337.204 396,-259.204 396,-259.204"/>
</g>
<!-- vm100 -->
<g id="node5" class="node"><title>vm100</title>
<polygon fill="#666666" stroke="none" points="192.5,-108.204 192.5,-118.204 222.5,-118.204 222.5,-108.204 192.5,-108.204"/>
<text text-anchor="start" x="194" y="-111.304" font-family="monospace" font-size="8.00" fill="white">ens18</text>
<polygon fill="#888888" stroke="none" points="157,-70.2044 157,-108.204 271,-108.204 271,-70.2044 157,-70.2044"/>
<text text-anchor="start" x="190.5" y="-93.0044" font-family="Times,serif" font-size="14.00" fill="white">VM 100</text>
<text text-anchor="start" x="161" y="-77.6044" font-family="monospace" font-size="12.00" fill="white">192.168.10.100</text>
<polygon fill="none" stroke="#666666" stroke-width="2" points="158,-71.2044 158,-107.204 270,-107.204 270,-71.2044 158,-71.2044"/>
</g>
<!-- node1_vmbr0&#45;&#45;vm100 -->
<g id="edge4" class="edge"><title>node1_vmbr0:tap100i0&#45;&#45;vm100:ens18</title>
<path fill="none" stroke="black" d="M207,-199.204C207,-199.204 207,-119.204 207,-119.204"/>
</g>
<!-- vm200 -->
<g id="node6" class="node"><title>vm200</title>
<polygon fill="#666666" stroke="none" points="363.5,-108.204 363.5,-118.204 393.5,-118.204 393.5,-108.204 363.5,-108.204"/>
<text text-anchor="start" x="365" y="-111.304" font-family="monospace" font-size="8.00" fill="white">ens18</text>
<polygon fill="#888888" stroke="none" points="328,-70.2044 328,-108.204 442,-108.204 442,-70.2044 328,-70.2044"/>
<text text-anchor="start" x="361.5" y="-93.0044" font-family="Times,serif" font-size="14.00" fill="white">VM 200</text>
<text text-anchor="start" x="332" y="-77.6044" font-family="monospace" font-size="12.00" fill="white">192.168.10.200</text>
<polygon fill="none" stroke="#666666" stroke-width="2" points="329,-71.2044 329,-107.204 441,-107.204 441,-71.2044 329,-71.2044"/>
</g>
<!-- node2_vmbr0&#45;&#45;vm200 -->
<g id="edge5" class="edge"><title>node2_vmbr0:tap200i0&#45;&#45;vm200:ens18</title>
<path fill="none" stroke="black" d="M378,-199.204C378,-199.204 378,-119.204 378,-119.204"/>
</g>
<!-- vm201 -->
<g id="node7" class="node"><title>vm201</title>
<polygon fill="#666666" stroke="none" points="511.5,-108.204 511.5,-118.204 541.5,-118.204 541.5,-108.204 511.5,-108.204"/>
<text text-anchor="start" x="513" y="-111.304" font-family="monospace" font-size="8.00" fill="white">ens18</text>
<polygon fill="#888888" stroke="none" points="476,-70.2044 476,-108.204 590,-108.204 590,-70.2044 476,-70.2044"/>
<text text-anchor="start" x="509.5" y="-93.0044" font-family="Times,serif" font-size="14.00" fill="white">VM 201</text>
<text text-anchor="start" x="480" y="-77.6044" font-family="monospace" font-size="12.00" fill="white">192.168.10.201</text>
<polygon fill="none" stroke="#666666" stroke-width="2" points="477,-71.2044 477,-107.204 589,-107.204 589,-71.2044 477,-71.2044"/>
</g>
<!-- node2_vmbr0&#45;&#45;vm201 -->
<g id="edge6" class="edge"><title>node2_vmbr0:tap201i0&#45;&#45;vm201:ens18</title>
<path fill="none" stroke="black" d="M433,-199.204C433,-199.204 526,-119.204 526,-119.204"/>
</g>
</g>
</svg>
