<?xml version="1.0" encoding="UTF-8" standalone="no"?>
<!DOCTYPE svg PUBLIC "-//W3C//DTD SVG 1.1//EN"
 "http://www.w3.org/Graphics/SVG/1.1/DTD/svg11.dtd">
<!-- Generated by graphviz version 2.38.0 (20140413.2041)
 -->
<!-- Title: default_network_setup_bridge Pages: 1 -->
<svg width="572pt" height="360pt"
 viewBox="0.00 0.00 571.91 360.00" xmlns="http://www.w3.org/2000/svg" xmlns:xlink="http://www.w3.org/1999/xlink">
<g id="graph0" class="graph" transform="scale(0.851064 0.851064) rotate(0) translate(4 419)">
<title>default_network_setup_bridge</title>
<polygon fill="white" stroke="none" points="-4,4 -4,-419 668,-419 668,4 -4,4"/>
<g id="clust1" class="cluster"><title>cluster_node1</title>
<path fill="#00617f" stroke="#00617f" d="M160,-12.1168C160,-12.1168 314,-12.1168 314,-12.1168 320,-12.1168 326,-18.1168 326,-24.1168 326,-24.1168 326,-298.493 326,-298.493 326,-304.493 320,-310.493 314,-310.493 314,-310.493 160,-310.493 160,-310.493 154,-310.493 148,-304.493 148,-298.493 148,-298.493 148,-24.1168 148,-24.1168 148,-18.1168 154,-12.1168 160,-12.1168"/>
<text text-anchor="middle" x="237" y="-19.9168" font-family="Helvetica,sans-Serif" font-size="14.00" fill="white">Node: proxmox1</text>
</g>
<g id="clust2" class="cluster"><title>cluster_node2</title>
<path fill="#00617f" stroke="#00617f" d="M346,-12.1168C346,-12.1168 644,-12.1168 644,-12.1168 650,-12.1168 656,-18.1168 656,-24.1168 656,-24.1168 656,-298.493 656,-298.493 656,-304.493 650,-310.493 644,-310.493 644,-310.493 346,-310.493 346,-310.493 340,-310.493 334,-304.493 334,-298.493 334,-298.493 334,-24.1168 334,-24.1168 334,-18.1168 340,-12.1168 346,-12.1168"/>
<text text-anchor="middle" x="495" y="-19.9168" font-family="Helvetica,sans-Serif" font-size="14.00" fill="white">Node: proxmox2</text>
</g>
<!-- gateway -->
<g id="node1" class="node"><title>gateway</title>
<polygon fill="#666666" stroke="none" points="48.5,-262.117 48.5,-272.117 73.5,-272.117 73.5,-262.117 48.5,-262.117"/>
<text text-anchor="start" x="51.5" y="-265.217" font-family="Courier,monospace" font-size="8.00" fill="white">eno1</text>
<polygon fill="#ff9100" stroke="none" points="8,-224.117 8,-262.117 130,-262.117 130,-224.117 8,-224.117"/>
<text text-anchor="start" x="19" y="-246.917" font-family="Helvetica,sans-Serif" font-size="14.00" fill="white">Gateway, DHCP</text>
<text text-anchor="start" x="23.5" y="-231.517" font-family="Courier,monospace" font-size="12.00" fill="white">192.168.10.1</text>
<polygon fill="none" stroke="#666666" stroke-width="2" points="9,-225.117 9,-261.117 129,-261.117 129,-225.117 9,-225.117"/>
</g>
<!-- tor01 -->
<g id="node2" class="node"><title>tor01</title>
<path fill="#abbaba" stroke="none" d="M165,-378.117C165,-378.117 298,-378.117 298,-378.117 301.5,-378.117 305,-381.617 305,-385.117 305,-385.117 305,-392.117 305,-392.117 305,-395.617 301.5,-399.117 298,-399.117 298,-399.117 165,-399.117 165,-399.117 161.5,-399.117 158,-395.617 158,-392.117 158,-392.117 158,-385.117 158,-385.117 158,-381.617 161.5,-378.117 165,-378.117"/>
<text text-anchor="start" x="173" y="-384.917" font-family="Helvetica,sans-Serif" font-size="14.00" fill="white">Top of Rack Switch</text>
<path fill="none" stroke="#666666" stroke-width="2" d="M165,-378.117C165,-378.117 298,-378.117 298,-378.117 301.5,-378.117 305,-381.617 305,-385.117 305,-385.117 305,-392.117 305,-392.117 305,-395.617 301.5,-399.117 298,-399.117 298,-399.117 165,-399.117 165,-399.117 161.5,-399.117 158,-395.617 158,-392.117 158,-392.117 158,-385.117 158,-385.117 158,-381.617 161.5,-378.117 165,-378.117"/>
<polygon fill="#666666" stroke="none" stroke-width="2" points="188.5,-367.117 188.5,-377.117 198.5,-377.117 198.5,-367.117 188.5,-367.117"/>
<text text-anchor="start" x="191" y="-370.217" font-family="Courier,monospace" font-size="8.00" fill="white">1</text>
<polygon fill="#666666" stroke="none" stroke-width="2" points="221.5,-367.117 221.5,-377.117 231.5,-377.117 231.5,-367.117 221.5,-367.117"/>
<text text-anchor="start" x="224" y="-370.217" font-family="Courier,monospace" font-size="8.00" fill="white">2</text>
<polygon fill="#666666" stroke="none" stroke-width="2" points="254.5,-367.117 254.5,-377.117 264.5,-377.117 264.5,-367.117 254.5,-367.117"/>
<text text-anchor="start" x="257" y="-370.217" font-family="Courier,monospace" font-size="8.00" fill="white">3</text>
</g>
<!-- tor01&#45;&#45;gateway -->
<g id="edge1" class="edge"><title>tor01:1&#45;&#45;gateway:eno1</title>
<path fill="none" stroke="#ff9100" d="M193,-366.117C193,-366.117 61,-273.117 61,-273.117"/>
</g>
<!-- node1_vmbr0 -->
<g id="node3" class="node"><title>node1_vmbr0</title>
<polygon fill="#666666" stroke="none" points="214,-267.117 214,-277.117 239,-277.117 239,-267.117 214,-267.117"/>
<text text-anchor="start" x="217" y="-270.217" font-family="Courier,monospace" font-size="8.00" fill="white">eno1</text>
<path fill="#abbaba" stroke="none" d="M178,-230.117C178,-230.117 297,-230.117 297,-230.117 303,-230.117 309,-236.117 309,-242.117 309,-242.117 309,-254.117 309,-254.117 309,-260.117 303,-266.117 297,-266.117 297,-266.117 178,-266.117 178,-266.117 172,-266.117 166,-260.117 166,-254.117 166,-254.117 166,-242.117 166,-242.117 166,-236.117 172,-230.117 178,-230.117"/>
<text text-anchor="start" x="218" y="-251.917" font-family="Helvetica,sans-Serif" font-size="14.00" fill="white">vmbr0</text>
<text text-anchor="start" x="181" y="-236.517" font-family="Courier,monospace" font-size="12.00" fill="white">192.168.10.2/24</text>
<path fill="none" stroke="#666666" stroke-width="2" d="M178,-230.117C178,-230.117 297,-230.117 297,-230.117 303,-230.117 309,-236.117 309,-242.117 309,-242.117 309,-254.117 309,-254.117 309,-260.117 303,-266.117 297,-266.117 297,-266.117 178,-266.117 178,-266.117 172,-266.117 166,-260.117 166,-254.117 166,-254.117 166,-242.117 166,-242.117 166,-236.117 172,-230.117 178,-230.117"/>
<polygon fill="#666666" stroke="none" stroke-width="2" points="206.5,-219.117 206.5,-229.117 251.5,-229.117 251.5,-219.117 206.5,-219.117"/>
<text text-anchor="start" x="210.5" y="-222.217" font-family="Courier,monospace" font-size="8.00" fill="white">tap100i0</text>
</g>
<!-- tor01&#45;&#45;node1_vmbr0 -->
<g id="edge2" class="edge"><title>tor01:2&#45;&#45;node1_vmbr0:eno1</title>
<path fill="none" stroke="#ff9100" d="M226,-366.117C226,-366.117 226,-278.117 226,-278.117"/>
</g>
<!-- node2_vmbr0 -->
<g id="node4" class="node"><title>node2_vmbr0</title>
<polygon fill="#666666" stroke="none" points="411,-267.117 411,-277.117 436,-277.117 436,-267.117 411,-267.117"/>
<text text-anchor="start" x="414" y="-270.217" font-family="Courier,monospace" font-size="8.00" fill="white">eno1</text>
<path fill="#abbaba" stroke="none" d="M375,-230.117C375,-230.117 494,-230.117 494,-230.117 500,-230.117 506,-236.117 506,-242.117 506,-242.117 506,-254.117 506,-254.117 506,-260.117 500,-266.117 494,-266.117 494,-266.117 375,-266.117 375,-266.117 369,-266.117 363,-260.117 363,-254.117 363,-254.117 363,-242.117 363,-242.117 363,-236.117 369,-230.117 375,-230.117"/>
<text text-anchor="start" x="415" y="-251.917" font-family="Helvetica,sans-Serif" font-size="14.00" fill="white">vmbr0</text>
<text text-anchor="start" x="378" y="-236.517" font-family="Courier,monospace" font-size="12.00" fill="white">192.168.10.3/24</text>
<path fill="none" stroke="#666666" stroke-width="2" d="M375,-230.117C375,-230.117 494,-230.117 494,-230.117 500,-230.117 506,-236.117 506,-242.117 506,-242.117 506,-254.117 506,-254.117 506,-260.117 500,-266.117 494,-266.117 494,-266.117 375,-266.117 375,-266.117 369,-266.117 363,-260.117 363,-254.117 363,-254.117 363,-242.117 363,-242.117 363,-236.117 369,-230.117 375,-230.117"/>
<polygon fill="#666666" stroke="none" stroke-width="2" points="383,-219.117 383,-229.117 428,-229.117 428,-219.117 383,-219.117"/>
<text text-anchor="start" x="387" y="-222.217" font-family="Courier,monospace" font-size="8.00" fill="white">tap200i0</text>
<polygon fill="#666666" stroke="none" stroke-width="2" points="437,-219.117 437,-229.117 482,-229.117 482,-219.117 437,-219.117"/>
<text text-anchor="start" x="441" y="-222.217" font-family="Courier,monospace" font-size="8.00" fill="white">tap201i0</text>
</g>
<!-- tor01&#45;&#45;node2_vmbr0 -->
<g id="edge3" class="edge"><title>tor01:3&#45;&#45;node2_vmbr0:eno1</title>
<path fill="none" stroke="#ff9100" d="M260,-366.117C260,-366.117 423,-278.117 423,-278.117"/>
</g>
<!-- vm100 -->
<g id="node5" class="node"><title>vm100</title>
<polygon fill="#666666" stroke="none" points="214.5,-115.117 214.5,-125.117 244.5,-125.117 244.5,-115.117 214.5,-115.117"/>
<text text-anchor="start" x="218" y="-118.217" font-family="Courier,monospace" font-size="8.00" fill="white">ens18</text>
<polygon fill="#ff9100" stroke="none" points="174,-77.1168 174,-115.117 302,-115.117 302,-77.1168 174,-77.1168"/>
<text text-anchor="start" x="214" y="-99.9168" font-family="Helvetica,sans-Serif" font-size="14.00" fill="white">VM 100</text>
<text text-anchor="start" x="185" y="-84.5168" font-family="Courier,monospace" font-size="12.00" fill="white">192.168.10.100</text>
<polygon fill="none" stroke="#666666" stroke-width="2" points="175,-78.1168 175,-114.117 301,-114.117 301,-78.1168 175,-78.1168"/>
</g>
<!-- node1_vmbr0&#45;&#45;vm100 -->
<g id="edge4" class="edge"><title>node1_vmbr0:tap100i0&#45;&#45;vm100:ens18</title>
<path fill="none" stroke="white" d="M229,-218.117C229,-218.117 229,-126.117 229,-126.117"/>
</g>
<!-- vm200 -->
<g id="node6" class="node"><title>vm200</title>
<polygon fill="#666666" stroke="none" points="390.5,-115.117 390.5,-125.117 420.5,-125.117 420.5,-115.117 390.5,-115.117"/>
<text text-anchor="start" x="394" y="-118.217" font-family="Courier,monospace" font-size="8.00" fill="white">ens18</text>
<polygon fill="#ff9100" stroke="none" points="350,-77.1168 350,-115.117 478,-115.117 478,-77.1168 350,-77.1168"/>
<text text-anchor="start" x="390" y="-99.9168" font-family="Helvetica,sans-Serif" font-size="14.00" fill="white">VM 200</text>
<text text-anchor="start" x="361" y="-84.5168" font-family="Courier,monospace" font-size="12.00" fill="white">192.168.10.200</text>
<polygon fill="none" stroke="#666666" stroke-width="2" points="351,-78.1168 351,-114.117 477,-114.117 477,-78.1168 351,-78.1168"/>
</g>
<!-- node2_vmbr0&#45;&#45;vm200 -->
<g id="edge5" class="edge"><title>node2_vmbr0:tap200i0&#45;&#45;vm200:ens18</title>
<path fill="none" stroke="white" d="M405,-218.117C405,-218.117 405,-126.117 405,-126.117"/>
</g>
<!-- vm201 -->
<g id="node7" class="node"><title>vm201</title>
<polygon fill="#666666" stroke="none" points="552.5,-115.117 552.5,-125.117 582.5,-125.117 582.5,-115.117 552.5,-115.117"/>
<text text-anchor="start" x="556" y="-118.217" font-family="Courier,monospace" font-size="8.00" fill="white">ens18</text>
<polygon fill="#ff9100" stroke="none" points="512,-77.1168 512,-115.117 640,-115.117 640,-77.1168 512,-77.1168"/>
<text text-anchor="start" x="552" y="-99.9168" font-family="Helvetica,sans-Serif" font-size="14.00" fill="white">VM 201</text>
<text text-anchor="start" x="523" y="-84.5168" font-family="Courier,monospace" font-size="12.00" fill="white">192.168.10.201</text>
<polygon fill="none" stroke="#666666" stroke-width="2" points="513,-78.1168 513,-114.117 639,-114.117 639,-78.1168 513,-78.1168"/>
</g>
<!-- node2_vmbr0&#45;&#45;vm201 -->
<g id="edge6" class="edge"><title>node2_vmbr0:tap201i0&#45;&#45;vm201:ens18</title>
<path fill="none" stroke="white" d="M460,-218.117C460,-218.117 567,-126.117 567,-126.117"/>
</g>
</g>
</svg>
