<?xml version="1.0" encoding="UTF-8" standalone="no"?>
<!DOCTYPE svg PUBLIC "-//W3C//DTD SVG 1.1//EN"
 "http://www.w3.org/Graphics/SVG/1.1/DTD/svg11.dtd">
<!-- Generated by graphviz version 2.38.0 (20140413.2041)
 -->
<!-- Title: default_network_setup_routed Pages: 1 -->
<svg width="571pt" height="360pt"
 viewBox="0.00 0.00 571.30 360.00" xmlns="http://www.w3.org/2000/svg" xmlns:xlink="http://www.w3.org/1999/xlink">
<g id="graph0" class="graph" transform="scale(0.978261 0.978261) rotate(0) translate(4 364)">
<title>default_network_setup_routed</title>
<polygon fill="white" stroke="none" points="-4,4 -4,-364 580,-364 580,4 -4,4"/>
<g id="clust1" class="cluster"><title>cluster_node1</title>
<path fill="#00617f" stroke="#00617f" d="M21.4233,-10.6273C21.4233,-10.6273 554.577,-10.6273 554.577,-10.6273 560.577,-10.6273 566.577,-16.6273 566.577,-22.6273 566.577,-22.6273 566.577,-248.369 566.577,-248.369 566.577,-254.369 560.577,-260.369 554.577,-260.369 554.577,-260.369 21.4233,-260.369 21.4233,-260.369 15.4233,-260.369 9.42331,-254.369 9.42331,-248.369 9.42331,-248.369 9.42331,-22.6273 9.42331,-22.6273 9.42331,-16.6273 15.4233,-10.6273 21.4233,-10.6273"/>
<text text-anchor="middle" x="288" y="-18.4273" font-family="Helvetica,sans-Serif" font-size="14.00" fill="white">Node: proxmox</text>
</g>
<!-- gateway -->
<g id="node1" class="node"><title>gateway</title>
<polygon fill="#ff9100" stroke="none" points="383.607,-310.627 383.607,-348.627 514.607,-348.627 514.607,-310.627 383.607,-310.627"/>
<text text-anchor="start" x="394.607" y="-333.427" font-family="Helvetica,sans-Serif" font-size="14.00" fill="white">Provider Gateway</text>
<text text-anchor="start" x="403.607" y="-318.027" font-family="Courier,monospace" font-size="12.00" fill="white">198.51.100.1</text>
<polygon fill="none" stroke="#666666" stroke-width="2" points="384.607,-311.627 384.607,-347.627 513.607,-347.627 513.607,-311.627 384.607,-311.627"/>
</g>
<!-- node1_eno0 -->
<g id="node2" class="node"><title>node1_eno0</title>
<polygon fill="#666666" stroke="none" points="438.607,-217.627 438.607,-227.627 463.607,-227.627 463.607,-217.627 438.607,-217.627"/>
<text text-anchor="start" x="441.607" y="-220.727" font-family="Courier,monospace" font-size="8.00" fill="white">eno0</text>
<path fill="lightgreen" stroke="none" d="M396.941,-197.627C396.941,-197.627 527.274,-197.627 527.274,-197.627 530.441,-197.627 533.607,-200.794 533.607,-203.961 533.607,-203.961 533.607,-210.294 533.607,-210.294 533.607,-213.461 530.441,-216.627 527.274,-216.627 527.274,-216.627 396.941,-216.627 396.941,-216.627 393.774,-216.627 390.607,-213.461 390.607,-210.294 390.607,-210.294 390.607,-203.961 390.607,-203.961 390.607,-200.794 393.774,-197.627 396.941,-197.627"/>
<text text-anchor="start" x="405.607" y="-204.027" font-family="Courier,monospace" font-size="12.00">198.51.100.5/29</text>
<path fill="none" stroke="green" stroke-width="2" d="M396.941,-197.627C396.941,-197.627 527.274,-197.627 527.274,-197.627 530.441,-197.627 533.607,-200.794 533.607,-203.961 533.607,-203.961 533.607,-210.294 533.607,-210.294 533.607,-213.461 530.441,-216.627 527.274,-216.627 527.274,-216.627 396.941,-216.627 396.941,-216.627 393.774,-216.627 390.607,-213.461 390.607,-210.294 390.607,-210.294 390.607,-203.961 390.607,-203.961 390.607,-200.794 393.774,-197.627 396.941,-197.627"/>
</g>
<!-- gateway&#45;&#45;node1_eno0 -->
<g id="edge4" class="edge"><title>gateway&#45;&#45;node1_eno0:eno0</title>
<path fill="none" stroke="#ff9100" d="M449.051,-306.434C449.64,-276.973 450.607,-228.627 450.607,-228.627"/>
</g>
<!-- node1_vmbr0 -->
<g id="node3" class="node"><title>node1_vmbr0</title>
<path fill="#abbaba" stroke="none" d="M55.6074,-199.627C55.6074,-199.627 174.607,-199.627 174.607,-199.627 180.607,-199.627 186.607,-205.627 186.607,-211.627 186.607,-211.627 186.607,-223.627 186.607,-223.627 186.607,-229.627 180.607,-235.627 174.607,-235.627 174.607,-235.627 55.6074,-235.627 55.6074,-235.627 49.6074,-235.627 43.6074,-229.627 43.6074,-223.627 43.6074,-223.627 43.6074,-211.627 43.6074,-211.627 43.6074,-205.627 49.6074,-199.627 55.6074,-199.627"/>
<text text-anchor="start" x="95.6074" y="-221.427" font-family="Helvetica,sans-Serif" font-size="14.00" fill="white">vmbr0</text>
<text text-anchor="start" x="58.6074" y="-206.027" font-family="Courier,monospace" font-size="12.00" fill="white">203.0.113.17/28</text>
<path fill="none" stroke="#666666" stroke-width="2" d="M55.6074,-199.627C55.6074,-199.627 174.607,-199.627 174.607,-199.627 180.607,-199.627 186.607,-205.627 186.607,-211.627 186.607,-211.627 186.607,-223.627 186.607,-223.627 186.607,-229.627 180.607,-235.627 174.607,-235.627 174.607,-235.627 55.6074,-235.627 55.6074,-235.627 49.6074,-235.627 43.6074,-229.627 43.6074,-223.627 43.6074,-223.627 43.6074,-211.627 43.6074,-211.627 43.6074,-205.627 49.6074,-199.627 55.6074,-199.627"/>
<polygon fill="#666666" stroke="none" stroke-width="2" points="84.1074,-188.627 84.1074,-198.627 129.107,-198.627 129.107,-188.627 84.1074,-188.627"/>
<text text-anchor="start" x="88.1074" y="-191.727" font-family="Courier,monospace" font-size="8.00" fill="white">tap100i0</text>
</g>
<!-- node1_vmbr0&#45;&#45;node1_eno0 -->
<g id="edge5" class="edge"><title>node1_vmbr0&#45;&#45;node1_eno0</title>
<path fill="none" stroke="red" d="M195.526,-212.627C251.299,-212.627 325.125,-212.627 380.861,-212.627"/>
<text text-anchor="end" x="346.107" y="-234.427" font-family="Courier,monospace" font-size="14.00" fill="white">ip_forward = 1</text>
<text text-anchor="end" x="346.107" y="-219.427" font-family="Courier,monospace" font-size="14.00" fill="white">proxy_arp = 1</text>
</g>
<!-- vm100 -->
<g id="node4" class="node"><title>vm100</title>
<polygon fill="#666666" stroke="none" points="74.1074,-102.627 74.1074,-112.627 104.107,-112.627 104.107,-102.627 74.1074,-102.627"/>
<text text-anchor="start" x="77.6074" y="-105.727" font-family="Courier,monospace" font-size="8.00" fill="white">ens18</text>
<polygon fill="#ff9100" stroke="none" points="39.6074,-64.6273 39.6074,-102.627 152.607,-102.627 152.607,-64.6273 39.6074,-64.6273"/>
<text text-anchor="start" x="72.1074" y="-87.4273" font-family="Helvetica,sans-Serif" font-size="14.00" fill="white">VM 100</text>
<text text-anchor="start" x="50.6074" y="-72.0273" font-family="Courier,monospace" font-size="12.00" fill="white">203.0.113.18</text>
<polygon fill="none" stroke="#666666" stroke-width="2" points="40.6074,-65.6273 40.6074,-101.627 151.607,-101.627 151.607,-65.6273 40.6074,-65.6273"/>
</g>
<!-- node1_vmbr0&#45;&#45;vm100 -->
<g id="edge1" class="edge"><title>node1_vmbr0:tap100i0&#45;&#45;vm100:ens18</title>
<path fill="none" stroke="white" d="M106.607,-187.627C106.607,-187.627 88.6074,-113.627 88.6074,-113.627"/>
</g>
<!-- vm101 -->
<g id="node5" class="node"><title>vm101</title>
<polygon fill="#666666" stroke="none" points="247.107,-102.627 247.107,-112.627 277.107,-112.627 277.107,-102.627 247.107,-102.627"/>
<text text-anchor="start" x="250.607" y="-105.727" font-family="Courier,monospace" font-size="8.00" fill="white">ens18</text>
<polygon fill="#ff9100" stroke="none" points="212.607,-64.6273 212.607,-102.627 325.607,-102.627 325.607,-64.6273 212.607,-64.6273"/>
<text text-anchor="start" x="245.107" y="-87.4273" font-family="Helvetica,sans-Serif" font-size="14.00" fill="white">VM 101</text>
<text text-anchor="start" x="223.607" y="-72.0273" font-family="Courier,monospace" font-size="12.00" fill="white">203.0.113.19</text>
<polygon fill="none" stroke="#666666" stroke-width="2" points="213.607,-65.6273 213.607,-101.627 324.607,-101.627 324.607,-65.6273 213.607,-65.6273"/>
</g>
<!-- node1_vmbr0&#45;&#45;vm101 -->
<g id="edge2" class="edge"><title>node1_vmbr0:tap100i0&#45;&#45;vm101:ens18</title>
<path fill="none" stroke="white" d="M106.607,-187.627C106.607,-187.627 261.607,-113.627 261.607,-113.627"/>
</g>
<!-- vm102 -->
<g id="node6" class="node"><title>vm102</title>
<polygon fill="#666666" stroke="none" points="420.107,-102.627 420.107,-112.627 450.107,-112.627 450.107,-102.627 420.107,-102.627"/>
<text text-anchor="start" x="423.607" y="-105.727" font-family="Courier,monospace" font-size="8.00" fill="white">ens18</text>
<polygon fill="#ff9100" stroke="none" points="385.607,-64.6273 385.607,-102.627 498.607,-102.627 498.607,-64.6273 385.607,-64.6273"/>
<text text-anchor="start" x="418.107" y="-87.4273" font-family="Helvetica,sans-Serif" font-size="14.00" fill="white">VM 101</text>
<text text-anchor="start" x="396.607" y="-72.0273" font-family="Courier,monospace" font-size="12.00" fill="white">203.0.113.20</text>
<polygon fill="none" stroke="#666666" stroke-width="2" points="386.607,-65.6273 386.607,-101.627 497.607,-101.627 497.607,-65.6273 386.607,-65.6273"/>
</g>
<!-- node1_vmbr0&#45;&#45;vm102 -->
<g id="edge3" class="edge"><title>node1_vmbr0:tap100i0&#45;&#45;vm102:ens18</title>
<path fill="none" stroke="white" d="M106.607,-187.627C106.607,-187.627 434.607,-113.627 434.607,-113.627"/>
</g>
</g>
</svg>
