<?xml version="1.0" encoding="UTF-8" standalone="no"?>
<!DOCTYPE svg PUBLIC "-//W3C//DTD SVG 1.1//EN"
 "http://www.w3.org/Graphics/SVG/1.1/DTD/svg11.dtd">
<!-- Generated by graphviz version 2.38.0 (20140413.2041)
 -->
<!-- Title: default_network_setup_routed Pages: 1 -->
<svg width="571pt" height="360pt"
 viewBox="0.00 0.00 571.30 360.00" xmlns="http://www.w3.org/2000/svg" xmlns:xlink="http://www.w3.org/1999/xlink">
<g id="graph0" class="graph" transform="scale(0.978261 0.978261) rotate(0) translate(4 364)">
<title>default_network_setup_routed</title>
<polygon fill="white" stroke="none" points="-4,4 -4,-364 580,-364 580,4 -4,4"/>
<g id="clust1" class="cluster"><title>cluster_node1</title>
<polygon fill="none" stroke="black" points="10.2628,-10.6273 10.2628,-260.369 565.737,-260.369 565.737,-10.6273 10.2628,-10.6273"/>
<text text-anchor="middle" x="61.7628" y="-18.4273" font-family="Times,serif" font-size="14.00">Node: proxmox</text>
</g>
<!-- gateway -->
<g id="node1" class="node"><title>gateway</title>
<polygon fill="#888888" stroke="none" points="384.169,-310.627 384.169,-348.627 491.169,-348.627 491.169,-310.627 384.169,-310.627"/>
<text text-anchor="start" x="388.169" y="-333.427" font-family="Times,serif" font-size="14.00" fill="white">Provider Gateway</text>
<text text-anchor="start" x="392.169" y="-318.027" font-family="monospace" font-size="12.00" fill="white">198.51.100.1</text>
<polygon fill="none" stroke="#666666" stroke-width="2" points="385.169,-311.627 385.169,-347.627 490.169,-347.627 490.169,-311.627 385.169,-311.627"/>
</g>
<!-- node1_eno0 -->
<g id="node2" class="node"><title>node1_eno0</title>
<polygon fill="#666666" stroke="none" points="428.169,-217.627 428.169,-227.627 453.169,-227.627 453.169,-217.627 428.169,-217.627"/>
<text text-anchor="start" x="429.669" y="-220.727" font-family="monospace" font-size="8.00" fill="white">eno0</text>
<path fill="lightgreen" stroke="none" d="M386.503,-197.627C386.503,-197.627 516.836,-197.627 516.836,-197.627 520.003,-197.627 523.169,-200.794 523.169,-203.961 523.169,-203.961 523.169,-210.294 523.169,-210.294 523.169,-213.461 520.003,-216.627 516.836,-216.627 516.836,-216.627 386.503,-216.627 386.503,-216.627 383.336,-216.627 380.169,-213.461 380.169,-210.294 380.169,-210.294 380.169,-203.961 380.169,-203.961 380.169,-200.794 383.336,-197.627 386.503,-197.627"/>
<text text-anchor="start" x="395.169" y="-204.027" font-family="monospace" font-size="12.00">198.51.100.5/29</text>
<path fill="none" stroke="green" stroke-width="2" d="M386.503,-197.627C386.503,-197.627 516.836,-197.627 516.836,-197.627 520.003,-197.627 523.169,-200.794 523.169,-203.961 523.169,-203.961 523.169,-210.294 523.169,-210.294 523.169,-213.461 520.003,-216.627 516.836,-216.627 516.836,-216.627 386.503,-216.627 386.503,-216.627 383.336,-216.627 380.169,-213.461 380.169,-210.294 380.169,-210.294 380.169,-203.961 380.169,-203.961 380.169,-200.794 383.336,-197.627 386.503,-197.627"/>
</g>
<!-- gateway&#45;&#45;node1_eno0 -->
<g id="edge4" class="edge"><title>gateway&#45;&#45;node1_eno0:eno0</title>
<path fill="none" stroke="black" d="M437.835,-306.434C438.719,-276.973 440.169,-228.627 440.169,-228.627"/>
</g>
<!-- node1_vmbr0 -->
<g id="node3" class="node"><title>node1_vmbr0</title>
<path fill="lightgreen" stroke="none" d="M65.1693,-199.627C65.1693,-199.627 184.169,-199.627 184.169,-199.627 190.169,-199.627 196.169,-205.627 196.169,-211.627 196.169,-211.627 196.169,-223.627 196.169,-223.627 196.169,-229.627 190.169,-235.627 184.169,-235.627 184.169,-235.627 65.1693,-235.627 65.1693,-235.627 59.1693,-235.627 53.1693,-229.627 53.1693,-223.627 53.1693,-223.627 53.1693,-211.627 53.1693,-211.627 53.1693,-205.627 59.1693,-199.627 65.1693,-199.627"/>
<text text-anchor="start" x="106.169" y="-221.427" font-family="Times,serif" font-size="14.00">vmbr0</text>
<text text-anchor="start" x="68.1693" y="-206.027" font-family="monospace" font-size="12.00">203.0.113.17/28</text>
<path fill="none" stroke="green" stroke-width="2" d="M65.1693,-199.627C65.1693,-199.627 184.169,-199.627 184.169,-199.627 190.169,-199.627 196.169,-205.627 196.169,-211.627 196.169,-211.627 196.169,-223.627 196.169,-223.627 196.169,-229.627 190.169,-235.627 184.169,-235.627 184.169,-235.627 65.1693,-235.627 65.1693,-235.627 59.1693,-235.627 53.1693,-229.627 53.1693,-223.627 53.1693,-223.627 53.1693,-211.627 53.1693,-211.627 53.1693,-205.627 59.1693,-199.627 65.1693,-199.627"/>
<polygon fill="#666666" stroke="none" stroke-width="2" points="93.6693,-188.627 93.6693,-198.627 138.669,-198.627 138.669,-188.627 93.6693,-188.627"/>
<text text-anchor="start" x="94.6693" y="-191.727" font-family="monospace" font-size="8.00" fill="white">tap100i0</text>
</g>
<!-- node1_vmbr0&#45;&#45;node1_eno0 -->
<g id="edge5" class="edge"><title>node1_vmbr0&#45;&#45;node1_eno0</title>
<path fill="none" stroke="red" d="M205.001,-212.627C255.404,-212.627 320.03,-212.627 370.418,-212.627"/>
<text text-anchor="middle" x="287.669" y="-234.427" font-family="Times,serif" font-size="14.00">ip_forward=1</text>
<text text-anchor="middle" x="287.669" y="-219.427" font-family="Times,serif" font-size="14.00">proxy_arp=1</text>
</g>
<!-- vm100 -->
<g id="node4" class="node"><title>vm100</title>
<polygon fill="#666666" stroke="none" points="76.1693,-102.627 76.1693,-112.627 106.169,-112.627 106.169,-102.627 76.1693,-102.627"/>
<text text-anchor="start" x="77.6693" y="-105.727" font-family="monospace" font-size="8.00" fill="white">ens18</text>
<polygon fill="#888888" stroke="none" points="46.1693,-64.6273 46.1693,-102.627 145.169,-102.627 145.169,-64.6273 46.1693,-64.6273"/>
<text text-anchor="start" x="72.1693" y="-87.4273" font-family="Times,serif" font-size="14.00" fill="white">VM 100</text>
<text text-anchor="start" x="50.1693" y="-72.0273" font-family="monospace" font-size="12.00" fill="white">203.0.113.18</text>
<polygon fill="none" stroke="#666666" stroke-width="2" points="47.1693,-65.6273 47.1693,-101.627 144.169,-101.627 144.169,-65.6273 47.1693,-65.6273"/>
</g>
<!-- node1_vmbr0&#45;&#45;vm100 -->
<g id="edge1" class="edge"><title>node1_vmbr0:tap100i0&#45;&#45;vm100:ens18</title>
<path fill="none" stroke="black" d="M116.169,-187.627C116.169,-187.627 91.1693,-113.627 91.1693,-113.627"/>
</g>
<!-- vm101 -->
<g id="node5" class="node"><title>vm101</title>
<polygon fill="#666666" stroke="none" points="246.169,-102.627 246.169,-112.627 276.169,-112.627 276.169,-102.627 246.169,-102.627"/>
<text text-anchor="start" x="247.669" y="-105.727" font-family="monospace" font-size="8.00" fill="white">ens18</text>
<polygon fill="#888888" stroke="none" points="216.169,-64.6273 216.169,-102.627 315.169,-102.627 315.169,-64.6273 216.169,-64.6273"/>
<text text-anchor="start" x="242.169" y="-87.4273" font-family="Times,serif" font-size="14.00" fill="white">VM 101</text>
<text text-anchor="start" x="220.169" y="-72.0273" font-family="monospace" font-size="12.00" fill="white">203.0.113.19</text>
<polygon fill="none" stroke="#666666" stroke-width="2" points="217.169,-65.6273 217.169,-101.627 314.169,-101.627 314.169,-65.6273 217.169,-65.6273"/>
</g>
<!-- node1_vmbr0&#45;&#45;vm101 -->
<g id="edge2" class="edge"><title>node1_vmbr0:tap100i0&#45;&#45;vm101:ens18</title>
<path fill="none" stroke="black" d="M116.169,-187.627C116.169,-187.627 261.169,-113.627 261.169,-113.627"/>
</g>
<!-- vm102 -->
<g id="node6" class="node"><title>vm102</title>
<polygon fill="#666666" stroke="none" points="417.169,-102.627 417.169,-112.627 447.169,-112.627 447.169,-102.627 417.169,-102.627"/>
<text text-anchor="start" x="418.669" y="-105.727" font-family="monospace" font-size="8.00" fill="white">ens18</text>
<polygon fill="#888888" stroke="none" points="387.169,-64.6273 387.169,-102.627 486.169,-102.627 486.169,-64.6273 387.169,-64.6273"/>
<text text-anchor="start" x="413.169" y="-87.4273" font-family="Times,serif" font-size="14.00" fill="white">VM 101</text>
<text text-anchor="start" x="391.169" y="-72.0273" font-family="monospace" font-size="12.00" fill="white">203.0.113.20</text>
<polygon fill="none" stroke="#666666" stroke-width="2" points="388.169,-65.6273 388.169,-101.627 485.169,-101.627 485.169,-65.6273 388.169,-65.6273"/>
</g>
<!-- node1_vmbr0&#45;&#45;vm102 -->
<g id="edge3" class="edge"><title>node1_vmbr0:tap100i0&#45;&#45;vm102:ens18</title>
<path fill="none" stroke="black" d="M116.169,-187.627C116.169,-187.627 432.169,-113.627 432.169,-113.627"/>
</g>
</g>
</svg>
