<?xml version="1.0" encoding="UTF-8" standalone="no"?>
<!-- Created with Inkscape (http://www.inkscape.org/) -->

<svg
   xmlns:dc="http://purl.org/dc/elements/1.1/"
   xmlns:cc="http://creativecommons.org/ns#"
   xmlns:rdf="http://www.w3.org/1999/02/22-rdf-syntax-ns#"
   xmlns:svg="http://www.w3.org/2000/svg"
   xmlns="http://www.w3.org/2000/svg"
   xmlns:sodipodi="http://sodipodi.sourceforge.net/DTD/sodipodi-0.dtd"
   xmlns:inkscape="http://www.inkscape.org/namespaces/inkscape"
   width="64mm"
   height="12mm"
   viewBox="0 0 226.77157 42.519685"
   id="svg4173"
   version="1.1"
   inkscape:version="0.91 r13725"
   sodipodi:docname="test3.svg">
  <defs
     id="defs4175">
    <clipPath
       id="clipPath2999"
       clipPathUnits="userSpaceOnUse">
      <path
         id="path3001"
         d="m 0,14400 14400,0 L 14400,0 0,0 0,14400 Z"
         inkscape:connector-curvature="0" />
    </clipPath>
  </defs>
  <sodipodi:namedview
     id="base"
     pagecolor="#ffffff"
     bordercolor="#666666"
     borderopacity="1.0"
     inkscape:pageopacity="0.0"
     inkscape:pageshadow="2"
     inkscape:zoom="1.979899"
     inkscape:cx="130.80576"
     inkscape:cy="30.47619"
     inkscape:document-units="px"
     inkscape:current-layer="layer1"
     showgrid="false"
     inkscape:window-width="699"
     inkscape:window-height="417"
     inkscape:window-x="731"
     inkscape:window-y="374"
     inkscape:window-maximized="0" />
  <metadata
     id="metadata4178">
    <rdf:RDF>
      <cc:Work
         rdf:about="">
        <dc:format>image/svg+xml</dc:format>
        <dc:type
           rdf:resource="http://purl.org/dc/dcmitype/StillImage" />
        <dc:title></dc:title>
      </cc:Work>
    </rdf:RDF>
  </metadata>
  <g
     inkscape:label="Layer 1"
     inkscape:groupmode="layer"
     id="layer1"
     transform="translate(0,-1009.8425)">
    <g
       style="display:inline"
       transform="matrix(0.28139221,0,0,-0.28139221,-1912.7637,3057.3313)"
       inkscape:label="Proxmox-Logo"
       id="g2993">
      <g
         inkscape:export-ydpi="90"
         inkscape:export-xdpi="90"
         inkscape:export-filename="N:\Administration\Proxmox-Logo\big.png"
         id="g2995">
        <g
           clip-path="url(#clipPath2999)"
           id="g2997">
          <g
             transform="translate(6890.0337,7197.04)"
             id="g3003">
            <path
               id="path3005"
               style="fill:#000000;fill-opacity:1;fill-rule:nonzero;stroke:none"
               d="m 0,0 c 5.477,0 5.477,5.604 5.477,5.604 l 0,13.882 C 5.477,24.963 0,24.963 0,24.963 l -39.101,0 L -39.101,0 0,0 Z m 27.892,24.963 0,-22.161 c 0,-12.355 -10.062,-22.288 -22.415,-22.288 l -44.578,0 c 0,-12.355 -9.934,-22.289 -22.16,-22.289 l 0,80.748 c 0,4.585 3.821,8.405 8.279,8.405 l 58.459,0 c 12.353,0 22.415,-10.062 22.415,-22.415"
               inkscape:connector-curvature="0" />
          </g>
          <g
             transform="translate(6991.7983,7202.6445)"
             id="g3007">
            <path
               id="path3009"
               style="fill:#000000;fill-opacity:1;fill-rule:nonzero;stroke:none"
               d="m 0,0 c 5.604,0 5.604,5.476 5.604,5.476 l 0,8.406 C 5.604,19.358 0,19.358 0,19.358 l -38.845,0 L -38.845,0 0,0 Z m 9.934,-19.233 17.959,-25.599 c -3.057,-1.656 -6.624,-2.548 -10.317,-2.548 -7.642,0 -14.137,3.694 -18.213,9.553 l -12.863,18.341 -25.345,0 0,-5.605 c 0,-12.354 -10.062,-22.289 -22.289,-22.289 l 0,80.748 c 0,4.585 3.693,8.405 8.279,8.405 l 58.459,0 c 12.354,0 22.289,-10.061 22.289,-22.415 l 0,-16.684 c 0,-10.825 -7.77,-19.869 -17.959,-21.907"
               inkscape:connector-curvature="0" />
          </g>
          <g
             transform="translate(7099.1689,7216.5264)"
             id="g3011">
            <path
               id="path3013"
               style="fill:#000000;fill-opacity:1;fill-rule:nonzero;stroke:none"
               d="m 0,0 c 0,5.477 -5.604,5.477 -5.604,5.477 l -33.242,0 C -44.449,5.477 -44.449,0 -44.449,0 l 0,-33.368 c 0,-5.605 5.603,-5.605 5.603,-5.605 l 33.242,0 C 0,-38.973 0,-33.368 0,-33.368 L 0,0 Z m 22.288,5.477 0,-44.45 C 22.288,-51.327 12.353,-61.262 0,-61.262 l -44.449,0 c -12.355,0 -22.289,9.935 -22.289,22.289 l 0,44.45 c 0,12.353 9.934,22.415 22.289,22.415 l 44.449,0 c 12.353,0 22.288,-10.062 22.288,-22.415"
               inkscape:connector-curvature="0" />
          </g>
          <g
             transform="translate(7199.0254,7199.8418)"
             id="g3015">
            <path
               id="path3017"
               style="fill:#cc6600;fill-opacity:1;fill-rule:nonzero;stroke:none"
               d="m 0,0 34.769,-38.208 c -3.821,-3.948 -9.17,-6.369 -15.03,-6.369 -6.24,0 -11.716,2.675 -15.537,6.878 l -19.231,21.141 -19.233,-21.141 c -3.82,-4.203 -9.425,-6.878 -15.538,-6.878 -5.857,0 -11.207,2.421 -15.028,6.369 L -30.058,0 -64.828,38.209 c 3.821,3.821 9.171,6.241 15.028,6.241 6.241,0 11.464,-2.548 15.411,-6.878 L -15.029,16.43 4.202,37.572 c 3.821,4.202 9.297,6.878 15.537,6.878 5.86,0 11.209,-2.42 15.03,-6.241 L 0,0 Z"
               inkscape:connector-curvature="0" />
          </g>
          <g
             transform="translate(7357.8486,7236.0127)"
             id="g3019">
            <path
               id="path3021"
               style="fill:#000000;fill-opacity:1;fill-rule:nonzero;stroke:none"
               d="m 0,0 0,-80.748 c -12.226,0 -22.288,9.935 -22.288,22.289 l 0,42.666 c 0,1.147 -0.765,1.91 -1.784,1.91 -0.765,0 -1.401,-0.509 -1.782,-1.019 l -24.71,-54.637 c -1.019,-1.911 -2.928,-3.185 -5.095,-3.185 -2.164,0 -4.201,1.401 -5.093,3.312 l -24.708,54.51 c -0.256,0.51 -1.019,1.019 -1.657,1.019 -1.147,0 -1.911,-0.763 -1.911,-1.91 l 0,-42.666 c 0,-12.354 -10.061,-22.289 -22.287,-22.289 l 0,80.748 c 0,4.585 3.692,8.405 8.406,8.405 l 13.881,0 c 9.043,0 16.941,-5.475 20.379,-13.372 l 0,0.254 12.99,-28.783 13.118,28.783 -0.126,-0.254 c 3.565,7.897 11.336,13.372 20.379,13.372 l 14.009,0 C -3.693,8.405 0,4.585 0,0"
               inkscape:connector-curvature="0" />
          </g>
          <g
             transform="translate(7437.3271,7216.5264)"
             id="g3023">
            <path
               id="path3025"
               style="fill:#000000;fill-opacity:1;fill-rule:nonzero;stroke:none"
               d="m 0,0 c 0,5.477 -5.604,5.477 -5.604,5.477 l -33.241,0 C -44.448,5.477 -44.448,0 -44.448,0 l 0,-33.368 c 0,-5.605 5.603,-5.605 5.603,-5.605 l 33.241,0 C 0,-38.973 0,-33.368 0,-33.368 L 0,0 Z m 22.289,5.477 0,-44.45 C 22.289,-51.327 12.353,-61.262 0,-61.262 l -44.448,0 c -12.355,0 -22.288,9.935 -22.288,22.289 l 0,44.45 c 0,12.353 9.933,22.415 22.288,22.415 l 44.448,0 c 12.353,0 22.289,-10.062 22.289,-22.415"
               inkscape:connector-curvature="0" />
          </g>
          <g
             transform="translate(7537.1836,7199.8418)"
             id="g3027">
            <path
               id="path3029"
               style="fill:#cc6600;fill-opacity:1;fill-rule:nonzero;stroke:none"
               d="m 0,0 34.769,-38.208 c -3.82,-3.948 -9.17,-6.369 -15.03,-6.369 -6.24,0 -11.716,2.675 -15.537,6.878 l -19.231,21.141 -19.233,-21.141 c -3.82,-4.203 -9.425,-6.878 -15.537,-6.878 -5.858,0 -11.208,2.421 -15.029,6.369 L -30.06,0 -64.828,38.209 c 3.821,3.821 9.171,6.241 15.029,6.241 6.24,0 11.463,-2.548 15.412,-6.878 L -15.029,16.43 4.202,37.572 c 3.821,4.202 9.297,6.878 15.537,6.878 5.86,0 11.21,-2.42 15.03,-6.241 L 0,0 Z"
               inkscape:connector-curvature="0" />
          </g>
        </g>
      </g>
    </g>
  </g>
</svg>
